<svg xmlns="http://www.w3.org/2000/svg" viewBox="0 0 38 43">
  <path fill="#000" d="M0.885669 31.9059V16.1258L6.21497 19.1732C6.76432 19.4875 7.10684 20.0727 7.11012 20.7013L7.13529 27.0693C7.14295 28.8314 8.10375 30.4743 9.64455 31.3554L18.0686 36.179C18.166 36.2397 18.3082 36.1628 18.3038 36.0457V26.069C18.3137 24.7609 18.0434 23.4745 17.3726 22.3486C16.7412 21.2518 15.8274 20.3274 14.7276 19.688L0.00146484 11.1147L19.4693 0L33.2686 7.88951L29.3236 10.1447C28.7863 10.4579 28.0793 10.459 27.5398 10.148C25.9345 9.37421 22.7281 6.95859 20.8492 7.12332C19.9661 7.12332 19.0994 7.35198 18.34 7.78547L8.45065 13.4284C8.34779 13.4815 8.34669 13.6419 8.45065 13.6961L15.7136 17.9389C16.8079 18.5761 18.0587 18.9197 19.3292 18.9316C20.6687 18.9728 22.0059 18.6541 23.1735 17.9963L37.9993 9.67224L37.9894 31.8441L24.1901 39.7337V33.6399C24.1901 33.0113 24.5305 32.425 25.0787 32.1086L30.6346 28.9029C32.1721 28.0164 33.1274 26.3703 33.1285 24.6081L33.1351 14.9706C33.1351 14.9131 33.1077 14.8654 33.0574 14.8362C33.007 14.8069 32.9512 14.8069 32.9009 14.8362L24.0928 19.7823C22.9656 20.4152 22.0278 21.3374 21.38 22.4483C20.7518 23.5255 20.4148 24.7523 20.4049 25.9953V42.9989L0.885669 31.9059Z"/>
</svg>
